# xmcd
#
# Track frame offsets:
#	150
#	12201
#	24914
#	37316
#	50819
#	64399
#	76699
#	90200
#	104795
#	117575
#	131288
#	146181
#	160756
#	175139
#	191087
#	206063
#	222323
#	237765
#	252987
#	269852
#	287430
#	303817
#	321587
#	341661
#
# Disc length: 4792 seconds
#
# Revision: 6
# Processed by: cddbd v1.5.2PL0 Copyright (c) Steve Scherf et al.
# Submitted via: audiograbber 1.83.01
#
DISCID=6d12b618
DTITLE=Diana Ross and The Supremes - The No. 1's   MOTOWN  2004
DYEAR=2004
DGENRE=Soul
TTITLE0=Supremes - Where Did Our Love Go      Motown 1060   1964
TTITLE1=Supremes - Baby Love      Motown 1066   1964
TTITLE2=Supremes - Come See About Me      Motown 1068   1964
TTITLE3=Supremes - Stop! In The Name Of Love     Motown 1074   1965
TTITLE4=Supremes - Back In My Arms Again      Motown 1075   1965
TTITLE5=Supremes - I Hear A Symphony      Motown 1083   1965
TTITLE6=Supremes - You Can't Hurry Love      Motown 1097   1966
TTITLE7=Supremes - You Keep Me Hangin' On      Motown 1101   1966
TTITLE8=Supremes - Love Is Here And Now You're Gone      Motown 1103   1967
TTITLE9=Supremes - The Happening      Motown 1107   1967
TTITLE10=Diana Ross and The Supremes - Reflections      Motown 1111   1967
TTITLE11=Diana Ross and The Supremes - Love Child       Motown 1135   1968
TTITLE12=Diana Ross and The Supremes with The Temptations - I'm Gonna Make You Lo
TTITLE12=ve Me       Motown 1137   1968
TTITLE13=Diana Ross and The Supremes - Someday We'll Be Together     Motown 1156 
TTITLE13=1969
TTITLE14=Supremes - Stoned Love     Motown 1172   1970
TTITLE15=Diana Ross - Ain't No Mountain High Enough      Motown 1169   1970
TTITLE16=Diana Ross - Touch Me In The Morning      Motown 1239   1973
TTITLE17=Diana Ross - The Theme From Mahogany (Do You Know Where You're Going T
TTITLE17=o?)     Motown 1377   1975
TTITLE18=Diana Ross - Love Hangover      Motown 1392   1976
TTITLE19=Diana Ross - The Boss      Motown 1462   1979
TTITLE20=Diana Ross - Upside Down     Motown 1494   1980
TTITLE21=Diana Ross - I'm Coming Out      Motown 1491   1980
TTITLE22=Diana Ross and Lionel Richie - Endless Love     Motown 1519   1981
TTITLE23=Supremes - You Keep Me Hangin' On (Almighty Mix Edit)      
EXTD=
EXTT0=
EXTT1=
EXTT2=
EXTT3=
EXTT4=
EXTT5=
EXTT6=
EXTT7=
EXTT8=
EXTT9=
EXTT10=
EXTT11=
EXTT12=
EXTT13=
EXTT14=
EXTT15=
EXTT16=
EXTT17=
EXTT18=
EXTT19=
EXTT20=
EXTT21=
EXTT22=
EXTT23=
PLAYORDER=
